<?xml version="1.0" encoding="UTF-8" standalone="no"?>
<!-- Created with Inkscape (http://www.inkscape.org/) -->

<svg
   width="118.25285"
   height="115.933"
   viewBox="0 0 28.986903 28.418246"
   version="1.1"
   id="svg5"
   xml:space="preserve"
   xmlns:inkscape="http://www.inkscape.org/namespaces/inkscape"
   xmlns:sodipodi="http://sodipodi.sourceforge.net/DTD/sodipodi-0.dtd"
   xmlns="http://www.w3.org/2000/svg"
   xmlns:svg="http://www.w3.org/2000/svg"><sodipodi:namedview
     id="namedview7"
     pagecolor="#ffffff"
     bordercolor="#000000"
     borderopacity="0.25"
     inkscape:showpageshadow="false"
     inkscape:pageopacity="0.0"
     inkscape:pagecheckerboard="0"
     inkscape:deskcolor="#d1d1d1"
     inkscape:document-units="cm"
     showgrid="false"
     borderlayer="true" /><defs
     id="defs2"><linearGradient
       id="linearGradient3025"
       inkscape:swatch="solid"><stop
         style="stop-color:#000000;stop-opacity:1;"
         offset="0"
         id="stop3023" /></linearGradient></defs><g
     inkscape:label="Capa 1"
     inkscape:groupmode="layer"
     id="layer1"
     transform="translate(-2.792299,-10.223795)"><g
       id="g3594"
       transform="matrix(1.3378784,0,0,1.3378784,-2.3928028,-7.4400999)"
       inkscape:export-filename="LOGO.svg"
       inkscape:export-xdpi="96"
       inkscape:export-ydpi="96"><path
         style="fill:#ebd0e4;fill-opacity:1;stroke-width:0.135414"
         d="m 7.5318072,33.631707 v -0.812486 h 0.880195 0.880194 v -2.775999 -2.775998 h -1.895803 -1.895804 v 0.880195 0.880193 h -0.812487 -0.812487 v -2.572874 -2.572877 h 0.812487 0.812487 v 0.880195 0.880193 h 1.895804 1.895803 v -0.880193 -0.880195 h 0.8124868 0.812487 v 0.880195 0.880193 h 3.791607 3.791606 v -0.880193 -0.880195 h 0.812487 0.812487 v 0.880195 0.880193 h 1.895804 1.895803 v -0.880193 -0.880195 h 0.812486 0.812489 v 2.572877 2.572874 H 24.72945 23.916964 v -0.880193 -0.880195 h -1.895803 -1.895804 v 2.775998 2.775999 h 0.880195 0.880194 v 0.812486 0.812486 H 19.245163 16.60458 v -0.812486 -0.812486 h 0.947902 0.947901 v -0.947902 -0.947904 h -1.015609 -1.015608 v 0.880195 0.880196 H 14.708777 12.948388 V 31.80361 30.923415 h -1.021796 -1.021796 l 0.04004,0.91405 0.04004,0.914047 0.914048,0.04004 0.914048,0.04004 v 0.806299 0.806299 H 10.172389 7.5318062 Z"
         id="path757" /><path
         style="fill:#ebd0e4;fill-opacity:1;stroke-width:0.135414"
         d="m 5.5519952,31.009924 v -1.692682 h 0.880194 0.880195 v 1.692682 1.692682 h -0.880195 -0.880194 z"
         id="path761" /><path
         style="fill:#ebd0e4;fill-opacity:1;stroke-width:0.135414"
         d="M 22.207981,31.077632 V 29.38495 h 0.880194 0.880194 v 1.692682 1.692682 h -0.880194 -0.880194 z"
         id="path765" /><path
         style="fill:#ebd0e4;fill-opacity:1;stroke-width:0.135414"
         d="m 20.176764,14.286231 v -0.812487 h 0.812487 0.812487 v 0.812487 0.812487 h -0.812487 -0.812487 z"
         id="path767" /><path
         style="fill:#ebd0e4;fill-opacity:1;stroke-width:0.0677074"
         d="M 11.171698,22.885053 V 22.004858 H 8.3957012 5.6197032 v -0.812487 -0.812487 h 0.947902 0.947901 v -1.828096 -1.828096 h 0.880195 0.880194 v -0.880194 -0.880195 h 0.9479018 0.947901 v -0.880194 -0.880194 h 3.520778 3.520777 v 0.880194 0.880194 h 0.947902 0.947901 v 0.880195 0.880194 h 0.880195 0.880194 v 1.828096 1.828096 h 0.947902 0.947901 v 0.812487 0.812487 h -2.775997 -2.775998 v 0.880195 0.880193 h -3.520777 -3.520778 z m 7.160043,-2.541106 c 0.12121,-0.03941 0.12121,-1.91993 0,-1.959344 -0.04655,-0.01514 -0.488339,-0.03815 -0.981755,-0.05115 l -0.897121,-0.02363 v 1.054446 1.054446 l 0.897121,-0.02363 c 0.493416,-0.01299 0.935206,-0.03601 0.981755,-0.05115 z m -5.399654,-0.999674 v -1.035612 l -0.863268,0.023 c -1.291077,0.0344 -1.16795,-0.06511 -1.16795,0.943936 0,1.146311 -0.04292,1.104284 1.127664,1.104284 h 0.903554 z"
         id="path1100" /><path
         style="fill:#ebd0e4;fill-opacity:1;stroke-width:0.0677074"
         d="m 7.7186272,14.18467 v -0.846341 h 0.812487 0.812487 v 0.846341 0.846341 h -0.812487 -0.812487 z"
         id="path1104" /></g></g></svg>
